<?xml version="1.0" encoding="utf-8"?>
<!-- Generator: Adobe Illustrator 15.0.2, SVG Export Plug-In  -->
<!DOCTYPE svg PUBLIC "-//W3C//DTD SVG 1.1//EN" "http://www.w3.org/Graphics/SVG/1.1/DTD/svg11.dtd" [
	<!ENTITY ns_flows "http://ns.adobe.com/Flows/1.0/">
]>
<svg version="1.1"
	 xmlns="http://www.w3.org/2000/svg" xmlns:xlink="http://www.w3.org/1999/xlink" xmlns:a="http://ns.adobe.com/AdobeSVGViewerExtensions/3.0/"
	 x="0px" y="0px" width="90px" height="84px" viewBox="-0.668 -0.902 90 84"
	 overflow="visible" enable-background="new -0.668 -0.902 90 84" xml:space="preserve">
<defs>
</defs>
<path fill="#FFFFFF" d="M38.961,23.442c1.563-0.676,3.206-1.186,4.843-1.533L43.729,0c-5.658,0.079-10.938,1.716-15.43,4.506
	l9.773,19.347C38.365,23.714,38.655,23.574,38.961,23.442z"/>
<path fill="#FFFFFF" d="M35.844,25.062L23.267,8.428c-3.995,3.852-6.928,8.796-8.316,14.353l16.769,6.424
	C32.543,27.603,33.961,26.241,35.844,25.062z"/>
<path fill="#FFFFFF" d="M57.019,25.342c3.8,7.793-4.942,7.603-1.331,13.685c1.678,2.825,6.964,6.511,12.145,9.649
	c4.023-5.117,6.43-11.566,6.43-18.582c0-6.126-1.835-11.821-4.977-16.577L56.192,24.135C56.512,24.502,56.8,24.896,57.019,25.342z"
	/>
<path fill="#FFFFFF" d="M54.27,22.63L65.147,8.523c-3.985-3.878-9.039-6.662-14.679-7.866l-4.164,20.858
	C49.337,21.204,52.189,21.534,54.27,22.63z"/>
<path fill="#FFFFFF" d="M49.796,47.39c-6.083-5.511-13.495-1.521-17.297-8.933c-1.349-2.631-1.799-4.896-1.526-6.864l-16.907-2.081
	c-0.003,0.194-0.015,0.387-0.015,0.582c0,16.626,13.479,30.105,30.106,30.105c4.607,0,8.972-1.04,12.875-2.89
	C55.033,53.729,52.49,49.832,49.796,47.39z M41.844,57.374c-1.805,0-3.269-1.464-3.269-3.269s1.463-3.268,3.269-3.268
	c1.806,0,3.27,1.463,3.27,3.268S43.649,57.374,41.844,57.374z"/>
<path fill="#FFFFFF" d="M13.832,67.46c-2.779-1.219-4.435-1.689-6.064-1.689c-1.712,0-2.807,0.609-2.807,1.551
	c0,2.852,9.742,2.049,9.742,8.64c0,3.627-3.088,5.732-7.356,5.732c-3.34,0-4.997-0.858-6.906-1.828v-4.07
	c2.751,1.799,4.436,2.436,6.542,2.436c1.825,0,2.808-0.637,2.808-1.744c0-3.101-9.742-1.965-9.742-8.751
	c0-3.267,2.864-5.425,7.299-5.425c2.134,0,4.071,0.442,6.485,1.467V67.46z"/>
<path fill="#FFFFFF" d="M26.801,71.42l8.451,10.024h-5.98l-7.58-8.861v8.861h-4.772V62.559h4.772v8.556h0.056l6.036-8.556h5.25
	L26.801,71.42z"/>
<path fill="#FFFFFF" d="M70.863,81.444h-4.014l-8.432-12.103v12.103h-4.774V62.559h4.381l8.066,11.547V62.559h4.772V81.444z"/>
<path fill="#FFFFFF" d="M88.37,81.444h-14.4V62.559h14.204v3.461h-9.432v3.96h9.01v3.462h-9.01v4.541h9.628V81.444z"/>
<path fill="#FFFFFF" d="M1.655,56.252c0.761,0,1.211,0.604,1.211,1.26c0,0.483-0.211,0.843-0.636,1.074
	c0.38,0.226,0.495,0.765,1.015,2.051H2.23c-0.395-0.938-0.542-1.78-1.042-1.78H0.922v1.78H0v-4.385H1.655z M0.922,58.052h0.489
	c0.255,0,0.505-0.128,0.505-0.501c0-0.328-0.179-0.495-0.526-0.495H0.922V58.052z"/>
<path fill="#FFFFFF" d="M6.471,60.637h-2.73v-4.385h2.692v0.804H4.664v0.92h1.688v0.803H4.664v1.056h1.807V60.637z"/>
<path fill="#FFFFFF" d="M10.602,57.512c-0.472-0.27-0.928-0.405-1.383-0.405c-1.004,0-1.357,0.733-1.357,1.383
	c0,0.778,0.516,1.294,1.281,1.294c0.229,0,0.342-0.027,0.613-0.155v-0.515H9.218v-0.803h1.46v1.793
	c-0.277,0.341-0.961,0.591-1.558,0.591c-1.292,0-2.209-0.931-2.209-2.243c0-1.338,0.911-2.258,2.231-2.258
	c0.554,0,1.091,0.148,1.459,0.36V57.512z"/>
<path fill="#FFFFFF" d="M12.473,60.637H11.55v-4.385h0.922V60.637z"/>
<path fill="#FFFFFF" d="M15.265,60.694c-1.357,0-2.123-1.131-2.123-2.249c0-1.062,0.728-2.252,2.123-2.252s2.117,1.196,2.117,2.252
	C17.381,59.57,16.595,60.694,15.265,60.694z M15.265,57.106c-0.706,0-1.172,0.534-1.172,1.339c0,0.804,0.467,1.338,1.172,1.338
	c0.7,0,1.167-0.534,1.167-1.338C16.432,57.641,15.964,57.106,15.265,57.106z"/>
<path fill="#FFFFFF" d="M21.721,60.637h-0.776l-2.046-2.81v2.81h-0.923v-4.385h0.847l1.976,2.682v-2.682h0.922V60.637z"/>
<path fill="#FFFFFF" d="M53.048,81.443h-5.138l-1.572-3.739h-8.564l-1.432,3.739h-5.054l7.722-18.89h5.532L53.048,81.443z
	 M41.846,67.068l-2.808,7.34h5.896L41.846,67.068z"/>
</svg>
